Coordinates
version=1
nRows=12
nColumns=46
inDegrees=yes

Units are S.I. units (second, meters, Newtons, ...)
Angles are in degrees.

endheader
time	pelvis_tilt	pelvis_list	pelvis_rotation	pelvis_tx	pelvis_ty	pelvis_tz	bb_angle	bb_tx	bb_ty	bb_tz	hip_flexion_r	hip_adduction_r	hip_rotation_r	knee_angle_r	knee_angle_r_beta	ankle_angle_r	subtalar_angle_r	mtp_angle_r	crank_angle_r	hip_flexion_l	hip_adduction_l	hip_rotation_l	knee_angle_l	knee_angle_l_beta	ankle_angle_l	subtalar_angle_l	mtp_angle_l	crank_angle_l	lumbar_extension	lumbar_bending	lumbar_rotation	arm_flex_r	arm_add_r	arm_rot_r	elbow_flex_r	pro_sup_r	wrist_flex_r	wrist_dev_r	arm_flex_l	arm_add_l	arm_rot_l	elbow_flex_l	pro_sup_l	wrist_flex_l	wrist_dev_l
      2.50500000	      0.71334392	     -6.48161646	     -2.20816108	      0.06215103	      1.17919294	     -0.24909244	      0.00000000	      0.50000000	      0.00000000	      0.25000000	     71.56776913	      4.34759574	      4.13031540	    110.91086740	      1.93575981	    -12.73970957	     -4.86970960	      0.00000000	      0.00000000	     24.80719419	    -11.75470399	     -5.14716515	     33.26518008	      0.58058692	     -3.74839091	      3.01521083	      0.00000000	      0.00000000	    -65.28546454	      5.71680756	      6.34321098	     89.48749094	     -8.72139552	     49.28242352	     31.07671647	     35.74528781	      0.00000000	      0.00000000	     88.78324930	    -10.84805550	     57.05210501	     23.83346398	     28.81561856	      0.00000000	      0.00000000
      2.51000000	      0.72841997	     -7.07937549	     -2.54389428	      0.06235727	      1.17978698	     -0.24989881	      0.00000000	      0.50000000	      0.00000000	      0.25000000	     72.13769761	      4.95634840	      3.79925978	    110.77865773	      1.93345232	    -11.93071105	     -4.54635846	      0.00000000	      0.00000000	     24.55519449	    -12.51134852	     -5.43503857	     33.76491947	      0.58930902	     -4.74636974	      2.47283959	      0.00000000	      0.00000000	    -65.38603965	      6.32763726	      6.79983531	     89.51567143	     -7.98924505	     49.18651084	     31.12230402	     35.66110247	      0.00000000	      0.00000000	     88.57634040	    -11.29725678	     57.28622123	     23.59105145	     28.83637309	      0.00000000	      0.00000000
      2.51500000	      0.63596298	     -7.43717377	     -2.78626935	      0.06232799	      1.17996326	     -0.25084917	      0.00000000	      0.50000000	      0.00000000	      0.25000000	     72.87057417	      5.27568565	      3.62134304	    110.66278484	      1.93142995	    -11.37941785	     -4.19531084	      0.00000000	      0.00000000	     24.51747734	    -12.86741064	     -5.27058953	     34.41480231	      0.60065161	     -5.22162889	      1.83176527	      0.00000000	      0.00000000	    -65.30644325	      6.92887237	      6.69378202	     89.52524502	     -6.00990570	     48.15113325	     31.00544722	     27.29531007	      0.00000000	      0.00000000	     88.66271317	    -12.86411404	     60.46285025	     23.02677622	     33.21095848	      0.00000000	      0.00000000
      2.52000000	      0.66384341	     -7.71845305	     -3.14671432	      0.06221862	      1.18039131	     -0.25152733	      0.00000000	      0.50000000	      0.00000000	      0.25000000	     73.38699820	      5.70058251	      3.52320887	    110.42913009	      1.92735191	    -10.84573816	     -4.13387937	      0.00000000	      0.00000000	     24.36503743	    -13.23125921	     -5.33982904	     35.15923501	      0.61364441	     -5.78701034	      1.29375992	      0.00000000	      0.00000000	    -65.43593977	      7.18348497	      6.99912305	     89.55141025	     -5.59267915	     48.11584456	     31.08133209	     27.29935240	      0.00000000	      0.00000000	     88.61041462	    -13.09897284	     60.50103490	     22.92688735	     33.20850179	      0.00000000	      0.00000000
      2.52500000	      0.40274558	     -8.05359702	     -3.40945587	      0.06190058	      1.18027294	     -0.25224710	      0.00000000	      0.50000000	      0.00000000	      0.25000000	     74.17127551	      6.04050514	      3.34193421	    110.10676952	      1.92172566	    -10.27988673	     -3.84322301	      0.00000000	      0.00000000	     24.72297933	    -13.52354778	     -4.88229464	     36.13826421	      0.63073170	     -6.35776275	      0.31384803	      0.00000000	      0.00000000	    -65.28883075	      7.69927144	      7.11634699	     89.57860718	     -4.55546689	     47.52601961	     30.63830950	     27.11588522	      0.00000000	      0.00000000	     88.47856764	    -13.82025872	     60.98568835	     23.01089297	     33.35155423	      0.00000000	      0.00000000
      2.53000000	      0.42287294	     -8.31265275	     -3.88222662	      0.06154734	      1.18063813	     -0.25258071	      0.00000000	      0.50000000	      0.00000000	      0.25000000	     74.55862052	      6.56104505	      3.24815714	    109.68383574	      1.91434407	     -9.65441048	     -3.85559554	      0.00000000	      0.00000000	     24.73843543	    -13.88328480	     -4.86202814	     37.20450070	      0.64934103	     -6.86914321	     -0.48249195	      0.00000000	      0.00000000	    -65.49474977	      7.86051084	      7.38398296	     89.60675575	     -3.99251017	     47.39032749	     30.73394747	     27.10155325	      0.00000000	      0.00000000	     88.44686150	    -14.20122184	     61.09960853	     22.95192284	     33.37305416	      0.00000000	      0.00000000
      2.53500000	      0.24019600	     -8.60775046	     -4.34616916	      0.06107681	      1.18058532	     -0.25289649	      0.00000000	      0.50000000	      0.00000000	      0.25000000	     75.10818433	      7.05648511	      3.11252745	    109.14723170	      1.90497856	     -9.06723076	     -3.66277041	      0.00000000	      0.00000000	     25.09821118	    -14.20374556	     -4.50951512	     38.45029818	      0.67108430	     -7.34105348	     -1.57835780	      0.00000000	      0.00000000	    -65.51539168	      8.10333362	      7.63395737	     89.63049607	     -3.21366205	     47.03249824	     30.73300834	     27.03268007	      0.00000000	      0.00000000	     88.35885421	    -14.75819925	     61.34441009	     22.99819915	     33.44208889	      0.00000000	      0.00000000
      2.54000000	      0.13158988	     -8.81570998	     -4.78864075	      0.06049447	      1.18048444	     -0.25335438	      0.00000000	      0.50000000	      0.00000000	      0.25000000	     75.49002361	      7.47712085	      3.07554447	    108.54349883	      1.89444144	     -8.40921529	     -3.51771994	      0.00000000	      0.00000000	     25.48527888	    -14.41612868	     -4.19439398	     39.90795165	      0.69652515	     -7.71580187	     -2.63732865	      0.00000000	      0.00000000	    -65.59562443	      8.30067304	      7.81048040	     89.65774800	     -2.54242338	     46.70447083	     30.76310108	     26.97270118	      0.00000000	      0.00000000	     88.36764047	    -15.28634656	     61.52637204	     23.07511745	     33.50262390	      0.00000000	      0.00000000
      2.54500000	     -0.24477592	     -9.00391155	     -5.06761847	      0.05966625	      1.17973925	     -0.25403865	      0.00000000	      0.50000000	      0.00000000	      0.25000000	     76.10338954	      7.71356779	      3.00379630	    107.88129852	      1.88288386	     -7.65774342	     -3.25718484	      0.00000000	      0.00000000	     26.34273648	    -14.39649843	     -3.33421331	     41.48725390	      0.72408918	     -8.29300843	     -4.21826859	      0.00000000	      0.00000000	    -65.45073254	      8.79219386	      7.45347106	     89.67703845	     -0.61431522	     44.56182655	     30.11324704	     26.39420765	      0.00000000	      0.00000000	     88.26422493	    -17.09096693	     62.79846329	     24.39876997	     34.08476830	      0.00000000	      0.00000000
      2.55000000	     -0.38663787	     -9.22256536	     -5.58095122	      0.05896957	      1.17941285	     -0.25422372	      0.00000000	      0.50000000	      0.00000000	      0.25000000	     76.34103919	      8.19919532	      2.97280446	    107.07643244	      1.86883630	     -6.84436551	     -2.92067882	      0.00000000	      0.00000000	     26.86725187	    -14.62236886	     -3.00550667	     43.12761384	      0.75271886	     -8.69574895	     -5.38391094	      0.00000000	      0.00000000	    -65.60268455	      8.94592207	      7.57151642	     89.69714832	      0.41971264	     43.54392838	     30.02388836	     26.89461315	      0.00000000	      0.00000000	     88.14667443	    -17.84425683	     61.93752021	     24.81497152	     34.70235473	      0.00000000	      0.00000000
      2.55500000	     -0.31619352	     -9.50080268	     -6.07147069	      0.05816426	      1.17931777	     -0.25431119	      0.00000000	      0.50000000	      0.00000000	      0.25000000	     76.20706767	      8.72243515	      2.83895379	    106.16618248	      1.85294944	     -5.94808862	     -2.90084792	      0.00000000	      0.00000000	     27.17737618	    -14.88422841	     -2.67739921	     44.81131624	      0.78210501	     -9.01556624	     -6.47744293	      0.00000000	      0.00000000	    -66.07847902	      9.04256279	      7.90902380	     89.70971397	      0.98911185	     42.24286864	     30.71621494	     27.82519700	      0.00000000	      0.00000000	     87.98237674	    -18.53380550	     60.06618065	     25.87871261	     35.33489910	      0.00000000	      0.00000000
      2.56000000	     -0.60143987	     -9.72668330	     -6.37955593	      0.05729673	      1.17821422	     -0.25450239	      0.00000000	      0.50000000	      0.00000000	      0.25000000	     76.40303259	      8.99089954	      2.68508687	    105.26647332	      1.83724655	     -5.04438452	     -2.71441366	      0.00000000	      0.00000000	     28.07960191	    -14.94729469	     -1.93170182	     46.75400899	      0.81601140	     -9.10363393	     -7.61412342	      0.00000000	      0.00000000	    -65.98747292	      9.33422552	      7.89552027	     89.73128368	      1.82025192	     42.25463763	     30.70008946	     27.16908844	      0.00000000	      0.00000000	     88.26161357	    -19.76428936	     63.19237629	     25.89707778	     36.27169355	      0.00000000	      0.00000000
